<svg width="33" height="40" viewBox="0 0 33 40" fill="none" xmlns="http://www.w3.org/2000/svg">
<path fill-rule="evenodd" clip-rule="evenodd" d="M26.1108 21.2054L25.336 20.849L25.2731 19.9976C25.07 17.2575 22.756 15.1105 20.0038 15.1105C19.5183 15.1105 19.0267 15.1794 18.5421 15.3154L17.6924 15.553L17.0924 14.9073C15.7624 13.4766 13.8788 12.6562 11.9238 12.6562C8.57675 12.6562 5.66704 15.0416 5.00849 18.3293L4.85439 19.0989L4.12352 19.3898C1.65716 20.3669 0 22.8023 0 25.4503C0 29.0452 2.92692 31.9722 6.52274 31.9722H23.7641C26.8709 31.9722 29.3984 29.4412 29.3984 26.3301C29.3975 24.1366 28.108 22.1248 26.1108 21.2054Z" fill="#D5DCE2"/>
<path fill-rule="evenodd" clip-rule="evenodd" d="M21.5863 11.4279C19.2732 8.50961 17.8252 3.44086 21.0836 0C19.8301 0.35984 18.6206 0.958138 17.5317 1.81642C15.6739 3.27816 14.5927 5.2831 14.182 7.40426C13.9987 8.87978 13.9642 10.2856 14.0004 11.6388C15.5508 12.0357 16.9773 12.8613 18.0826 14.0475L18.1222 14.0906L18.1764 14.0751C18.7808 13.9063 19.3954 13.8203 20.004 13.8203C23.407 13.8203 26.2659 16.439 26.5965 19.8067C27.9102 19.5527 29.1886 19.0224 30.3481 18.1091C31.4397 17.2525 32.304 16.2195 32.9479 15.0831C28.8365 17.4385 24.1775 14.6957 21.5863 11.4279Z" fill="#7694B4"/>
<path fill-rule="evenodd" clip-rule="evenodd" d="M21.1789 38.9014C20.04 41.1 17.441 39.6615 18.5343 37.5395C19.4623 35.736 21.692 34.6453 21.692 34.6453C21.692 34.6453 22.0794 37.1555 21.1789 38.9014ZM9.80607 38.9014C8.66715 41.1 6.06821 39.6615 7.1615 37.5395C8.08951 35.736 10.3191 34.6453 10.3191 34.6453C10.3191 34.6453 10.7065 37.1555 9.80607 38.9014Z" fill="#009EFF"/>
</svg>
